<?xml version="1.0" encoding="UTF-8" standalone="no"?>
<svg
   xmlns:dc="http://purl.org/dc/elements/1.1/"
   xmlns:cc="http://creativecommons.org/ns#"
   xmlns:rdf="http://www.w3.org/1999/02/22-rdf-syntax-ns#"
   xmlns:svg="http://www.w3.org/2000/svg"
   xmlns="http://www.w3.org/2000/svg"
   xmlns:sodipodi="http://sodipodi.sourceforge.net/DTD/sodipodi-0.dtd"
   xmlns:inkscape="http://www.inkscape.org/namespaces/inkscape"
   version="1.1"
   viewBox="0 0 480 400"
   id="svg84"
   sodipodi:docname="logo_svg.svg"
   inkscape:export-filename="D:\Skripsi - Tugas Akhir\logo_svg_white_bg.png"
   inkscape:export-xdpi="300"
   inkscape:export-ydpi="300"
   inkscape:version="0.92.4 (5da689c313, 2019-01-14)">
  <metadata
     id="metadata90">
    <rdf:RDF>
      <cc:Work
         rdf:about="">
        <dc:format>image/svg+xml</dc:format>
        <dc:type
           rdf:resource="http://purl.org/dc/dcmitype/StillImage" />
        <dc:title></dc:title>
      </cc:Work>
    </rdf:RDF>
  </metadata>
  <defs
     id="defs88" />
  <sodipodi:namedview
     pagecolor="#ffffff"
     bordercolor="#666666"
     borderopacity="1"
     objecttolerance="10"
     gridtolerance="10"
     guidetolerance="10"
     inkscape:pageopacity="0"
     inkscape:pageshadow="2"
     inkscape:window-width="1920"
     inkscape:window-height="1001"
     id="namedview86"
     showgrid="false"
     inkscape:zoom="0.59"
     inkscape:cx="235.76271"
     inkscape:cy="200"
     inkscape:window-x="-9"
     inkscape:window-y="-9"
     inkscape:window-maximized="1"
     inkscape:current-layer="svg84" />
  <circle
     cx="243.64"
     cy="208.05"
     r="187.71"
     id="circle2"
     fill="#fff"
     opacity=".98" />
  <g
     id="g82">
    <g
       stroke="#000"
       stroke-width=".5"
       id="g20">
      <path
         d="m244.92 118.22-58.898 26.271-18.22 20.339-20.339 16.949 9.7458 35.169 10.169 45.339 20.763-13.136 3.3898 46.186 1.2712 30.085 18.432-26.483 21.398 17.585 23.517 2.5424-7.839-35.593-14.195 2.9661 18.432-36.017-30.523 3.361 32.218-24.124-27.542 1.6949 29.237-15.678-18.332-23.016-43.532 15.389-28.39-19.915-18.644-7.2034"
         fill="none"
         id="path4" />
      <g
         stroke-linecap="round"
         stroke-linejoin="round"
         id="g14">
        <circle
           cx="147.55"
           cy="181.6"
           r="1.8609"
           id="circle6" />
        <circle
           cx="165.46"
           cy="188.38"
           r="1.8609"
           id="circle8" />
        <circle
           cx="168.21"
           cy="164.86"
           r="1.8609"
           id="circle10" />
        <circle
           cx="194.59"
           cy="207.65"
           r="1.8609"
           id="circle12" />
      </g>
      <path
         d="m188.14 249.15 38.559-17.797-4.6754 22.429-9.9433 44.732"
         fill="none"
         id="path16" />
      <path
         d="m194.07 208.05-5.9322 41.102-22.458-61.017 71.922 4.5263-51.583-48.17"
         fill="none"
         id="path18" />
    </g>
    <path
       d="m222.02 253.78 23.531 17.825 24.364-19.492-47.896 1.6661"
       opacity="0"
       stroke-width="1px"
       id="path22" />
    <path
       d="m222.02 253.78 23.531 17.825 25-17.373z"
       fill="#ff9219"
       id="path24" />
    <path
       d="m325.21 262.92-2.7542 33.898-23.941 25.847 3.6017-84.746 23.093 25"
       fill="#fba917"
       id="path26" />
    <path
       d="m257.42 262.92v22.881l-12.129 6.3029 0.25744-20.491z"
       fill="#fbc908"
       id="path28" />
    <path
       d="m236.05 264.18-1.9432 22.261 11.229 5.0847 0.21187-19.915z"
       fill="#ffbd0d"
       id="path30" />
    <path
       d="m212.08 298.52 22.034-12.076 11.229 5.0847 0.21187 7.4153h-34.322"
       fill="#f47223"
       id="path32" />
    <path
       d="m245.34 291.53 12.076-5.7203 25.424 14.142-37.289-1.0064z"
       fill="#f37a20"
       id="path34" />
    <path
       d="m300.42 295.34-1.9068 27.331-37.5 30.72-15.466 0.84746-0.42373-34.746 11.017-0.42373 26.059-19.28z"
       fill="#f68d1e"
       id="path36" />
    <path
       d="m282.2 299.79-25.834 19.655-11.242 0.0492 0.42373-20.551z"
       fill="#fa961f"
       id="path38" />
    <circle
       cx="251.27"
       cy="202.97"
       r="169.92"
       fill="none"
       id="circle40" />
    <path
       d="m340.37 196.56-6.8955 22.299-31.356 29.237-4.2373-47.034 31.992-25.424z"
       fill="#f8971f"
       id="path42" />
    <path
       d="m255.08 196.61 8.8983 35.805 38.136 15.678-4.661-56.568z"
       fill="#fcaa1b"
       id="path44" />
    <path
       d="m333.47 218.86-4.0254 24.788-4.2373 19.28-23.093-14.831z"
       fill="#f97324"
       id="path46" />
    <path
       d="m245.99 195.96 9.0955 0.65242 8.8983 35.805 38.136 15.678-1.6949 47.246-18.22 4.4492-24.788-13.983v-22.881s10.381-8.4746 9.5339-8.4746c-0.84745 0-19.28 3.8136-19.28 3.8136z"
       fill="#ffc20d"
       id="path48" />
    <path
       d="m245.99 195.96-8.3894-3.2958-15.58 61.123 25.65 4.478-1.6802-62.305"
       fill="#ffc40e"
       id="path50" />
    <path
       d="m245.99 195.96s31.977 12.305 49.138 10.398 34.11-22.458 34.11-22.458l-39.195-22.034z"
       fill="#f47c24"
       id="path52" />
    <path
       d="m333.05 86.864s21.401 22.503 21.401 48.57-14.082 61.123-14.082 61.123l-42.247-21.573-52.134 20.974-1.074-77.737z"
       fill="#fdb316"
       id="path54" />
    <path
       d="m156.78 85.169 29.237 59.322 58.898-26.271 1.2712-69.915s-36.864-8.0508-89.407 36.864z"
       fill="#ffc80c"
       opacity=".96"
       id="path56" />
    <path
       d="m246.19 48.305s39.831 1.6949 50.424 11.017c10.593 9.322 36.441 27.542 36.441 27.542l-29.237 61.017-58.898-29.661z"
       fill="#ffc20d"
       id="path58" />
    <g
       stroke="#000"
       stroke-linecap="round"
       stroke-linejoin="round"
       stroke-width=".5"
       id="g80">
      <circle
         cx="237.17"
         cy="192.82"
         r="1.8609"
         id="circle60" />
      <circle
         cx="185.9"
         cy="144.52"
         r="1.8609"
         id="circle62" />
      <circle
         cx="167.05"
         cy="261.79"
         r="1.8609"
         id="circle64" />
      <circle
         cx="187.17"
         cy="249.71"
         r="1.8609"
         id="circle66" />
      <circle
         cx="192.57"
         cy="325.06"
         r="1.8609"
         id="circle68" />
      <circle
         cx="211.14"
         cy="299"
         r="1.8609"
         id="circle70" />
      <circle
         cx="232.57"
         cy="316.23"
         r="1.8609"
         id="circle72" />
      <circle
         cx="221.18"
         cy="253.31"
         r="1.8609"
         id="circle74" />
      <circle
         cx="226.57"
         cy="231.28"
         r="1.8609"
         id="circle76" />
      <circle
         cx="245.43"
         cy="119.63"
         r="1.8609"
         id="circle78" />
    </g>
  </g>
</svg>
